<svg width="339.5900146484375px" height="149.6px" xmlns="http://www.w3.org/2000/svg" viewBox="80.20499267578126 0.20000000000000284 339.5900146484375 149.6" style="background: none;" preserveAspectRatio="xMidYMid"><defs><filter id="editing-cake" x="-100%" y="-100%" width="300%" height="300%"><feFlood flood-color="#2d1500" result="flood-shadow"></feFlood><feFlood flood-color="#894619"></feFlood><feComposite operator="in" in2="SourceAlpha"></feComposite><feConvolveMatrix order="7,10" divisor="1" result="conv" kernelMatrix="0 0 0 1 0 0 0 0 0 1 0 1 0 0 0 0 1 0 1 0 0 0 1 0 0 0 1 0 0 1 0 0 0 1 0 0 1 0 0 0 1 0 1 0 0 0 0 0 1 1 0 0 0 0 0 1 0 1 1 0 1 1 0 0 0 0 1 0 0 0 "></feConvolveMatrix><feGaussianBlur stdDeviation="0.5"></feGaussianBlur><feOffset dy="4" result="offset"></feOffset><feComposite operator="in" in="flood-shadow" in2="offset"></feComposite><feGaussianBlur stdDeviation="4"></feGaussianBlur><feComponentTransfer><feFuncA type="linear" slope="0.7" intercept="-0.2"></feFuncA></feComponentTransfer><feOffset dy="4" result="shadow"></feOffset><feGaussianBlur in="SourceGraphic" stdDeviation="0.5"></feGaussianBlur><feOffset dy="0" result="x0"></feOffset><feGaussianBlur in="SourceGraphic" stdDeviation="1"></feGaussianBlur><feComponentTransfer><feFuncA type="linear" slope="0.8" intercept="-.01"></feFuncA></feComponentTransfer><feOffset dy="1" result="x1"></feOffset><feGaussianBlur in="SourceGraphic" stdDeviation="2"></feGaussianBlur><feComponentTransfer><feFuncA type="linear" slope="0.7" intercept="-.01"></feFuncA></feComponentTransfer><feOffset dy="2" result="x2"></feOffset><feGaussianBlur in="SourceGraphic" stdDeviation="3"></feGaussianBlur><feComponentTransfer><feFuncA type="linear" slope="0.6" intercept="-.01"></feFuncA></feComponentTransfer><feOffset dy="3" result="x3"></feOffset><feMerge><feMergeNode in="shadow"></feMergeNode><feMergeNode in="offset"></feMergeNode><feMergeNode in="x3"></feMergeNode><feMergeNode in="x2"></feMergeNode><feMergeNode in="x1"></feMergeNode><feMergeNode in="x0"></feMergeNode></feMerge></filter></defs><g filter="url(#editing-cake)"><g transform="translate(132.97502851486206, 98.30000305175781)"><path d="M5.57 0L5.57-44.80L10.94-44.80L10.94-4.99L34.37-4.99L34.37 0L5.57 0ZM54.59-41.22L54.59-41.22L54.59-41.22Q54.59-43.07 55.90-44.38L55.90-44.38L55.90-44.38Q57.22-45.70 59.07-45.70L59.07-45.70L59.07-45.70Q60.93-45.70 62.24-44.38L62.24-44.38L62.24-44.38Q63.55-43.07 63.55-41.22L63.55-41.22L63.55-41.22Q63.55-39.36 62.24-38.05L62.24-38.05L62.24-38.05Q60.93-36.74 59.07-36.74L59.07-36.74L59.07-36.74Q57.22-36.74 55.90-38.05L55.90-38.05L55.90-38.05Q54.59-39.36 54.59-41.22ZM45.50 0L45.50-4.61L56.64-4.61L56.64-27.14L46.66-27.14L46.66-31.74L61.63-31.74L61.63-4.61L72-4.61L72 0L45.50 0ZM106.94-4.99L106.94-5.38L106.18-5.38L106.18-5.38Q104.64-2.18 101.92-0.64L101.92-0.64L101.92-0.64Q99.20 0.90 96.19 0.90L96.19 0.90L96.19 0.90Q93.06 0.90 90.37-0.16L90.37-0.16L90.37-0.16Q87.68-1.22 85.66-3.30L85.66-3.30L85.66-3.30Q83.65-5.38 82.50-8.38L82.50-8.38L82.50-8.38Q81.34-11.39 81.34-15.36L81.34-15.36L81.34-16.38L81.34-16.38Q81.34-20.29 82.50-23.30L82.50-23.30L82.50-23.30Q83.65-26.30 85.66-28.38L85.66-28.38L85.66-28.38Q87.68-30.46 90.37-31.55L90.37-31.55L90.37-31.55Q93.06-32.64 96.06-32.64L96.06-32.64L96.06-32.64Q99.33-32.64 101.98-31.20L101.98-31.20L101.98-31.20Q104.64-29.76 106.18-26.75L106.18-26.75L106.94-26.75L106.94-31.74L111.94-31.74L111.94-6.53L111.94-6.53Q111.94-4.61 113.66-4.61L113.66-4.61L115.26-4.61L115.26 0L111.87 0L111.87 0Q109.70 0 108.32-1.41L108.32-1.41L108.32-1.41Q106.94-2.82 106.94-4.99L106.94-4.99ZM96.70-3.84L96.70-3.84L96.70-3.84Q98.94-3.84 100.83-4.67L100.83-4.67L100.83-4.67Q102.72-5.50 104.06-7.04L104.06-7.04L104.06-7.04Q105.41-8.58 106.18-10.72L106.18-10.72L106.18-10.72Q106.94-12.86 106.94-15.49L106.94-15.49L106.94-16.26L106.94-16.26Q106.94-18.82 106.18-20.96L106.18-20.96L106.18-20.96Q105.41-23.10 104.03-24.64L104.03-24.64L104.03-24.64Q102.66-26.18 100.77-27.04L100.77-27.04L100.77-27.04Q98.88-27.90 96.70-27.90L96.70-27.90L96.70-27.90Q94.46-27.90 92.61-27.07L92.61-27.07L92.61-27.07Q90.75-26.24 89.38-24.74L89.38-24.74L89.38-24.74Q88-23.23 87.23-21.09L87.23-21.09L87.23-21.09Q86.46-18.94 86.46-16.38L86.46-16.38L86.46-15.36L86.46-15.36Q86.46-9.92 89.31-6.88L89.31-6.88L89.31-6.88Q92.16-3.84 96.70-3.84ZM128.06-16.51L128.06 0L123.07 0L123.07-31.74L128.06-31.74L128.06-26.37L128.83-26.37L128.83-26.37Q131.78-32.64 139.07-32.64L139.07-32.64L139.07-32.64Q144.58-32.64 147.84-29.22L147.84-29.22L147.84-29.22Q151.10-25.79 151.10-18.94L151.10-18.94L151.10 0L146.11 0L146.11-17.92L146.11-17.92Q146.11-22.91 143.87-25.41L143.87-25.41L143.87-25.41Q141.63-27.90 137.79-27.90L137.79-27.90L137.79-27.90Q133.25-27.90 130.66-24.80L130.66-24.80L130.66-24.80Q128.06-21.70 128.06-16.51L128.06-16.51ZM171.78-41.22L171.78-41.22L171.78-41.22Q171.78-43.07 173.09-44.38L173.09-44.38L173.09-44.38Q174.40-45.70 176.26-45.70L176.26-45.70L176.26-45.70Q178.11-45.70 179.42-44.38L179.42-44.38L179.42-44.38Q180.74-43.07 180.74-41.22L180.74-41.22L180.74-41.22Q180.74-39.81 179.97-38.69L179.97-38.69L179.97-38.69Q179.20-37.57 177.98-37.06L177.98-37.06L177.98-29.95L174.53-29.95L174.53-37.06L174.53-37.06Q173.31-37.57 172.54-38.69L172.54-38.69L172.54-38.69Q171.78-39.81 171.78-41.22ZM208-23.55L208-23.55L208-23.55Q208-21.25 209.95-20.03L209.95-20.03L209.95-20.03Q211.90-18.82 217.09-18.43L217.09-18.43L217.09-18.43Q222.66-17.98 225.57-15.78L225.57-15.78L225.57-15.78Q228.48-13.57 228.48-9.34L228.48-9.34L228.48-8.96L228.48-8.96Q228.48-6.66 227.55-4.83L227.55-4.83L227.55-4.83Q226.62-3.01 224.99-1.73L224.99-1.73L224.99-1.73Q223.36-0.45 221.02 0.22L221.02 0.22L221.02 0.22Q218.69 0.90 215.94 0.90L215.94 0.90L215.94 0.90Q212.22 0.90 209.57-0.10L209.57-0.10L209.57-0.10Q206.91-1.09 205.15-2.72L205.15-2.72L205.15-2.72Q203.39-4.35 202.50-6.43L202.50-6.43L202.50-6.43Q201.60-8.51 201.47-10.62L201.47-10.62L206.21-11.78L206.21-11.78Q206.53-8.13 209.02-5.92L209.02-5.92L209.02-5.92Q211.52-3.71 215.68-3.71L215.68-3.71L215.68-3.71Q219.20-3.71 221.34-5.09L221.34-5.09L221.34-5.09Q223.49-6.46 223.49-8.96L223.49-8.96L223.49-8.96Q223.49-11.65 221.38-12.80L221.38-12.80L221.38-12.80Q219.26-13.95 214.53-14.27L214.53-14.27L214.53-14.27Q209.02-14.66 206.08-16.83L206.08-16.83L206.08-16.83Q203.14-19.01 203.14-23.17L203.14-23.17L203.14-23.55L203.14-23.55Q203.14-25.79 204.10-27.49L204.10-27.49L204.10-27.49Q205.06-29.18 206.69-30.34L206.69-30.34L206.69-30.34Q208.32-31.49 210.37-32.06L210.37-32.06L210.37-32.06Q212.42-32.64 214.66-32.64L214.66-32.64L214.66-32.64Q217.79-32.64 220.16-31.78L220.16-31.78L220.16-31.78Q222.53-30.91 224.13-29.54L224.13-29.54L224.13-29.54Q225.73-28.16 226.59-26.37L226.59-26.37L226.59-26.37Q227.46-24.58 227.71-22.78L227.71-22.78L222.98-21.63L222.98-21.63Q222.66-24.70 220.51-26.43L220.51-26.43L220.51-26.43Q218.37-28.16 214.91-28.16L214.91-28.16L214.91-28.16Q213.57-28.16 212.32-27.87L212.32-27.87L212.32-27.87Q211.07-27.58 210.11-27.01L210.11-27.01L210.11-27.01Q209.15-26.43 208.58-25.57L208.58-25.57L208.58-25.57Q208-24.70 208-23.55Z" fill="#ffd800"></path></g></g><style>text {
  font-size: 64px;
  font-family: Arial Black;
  dominant-baseline: central;
  text-anchor: middle;
}</style></svg>